# xmcd
#
# Track frame offsets:
#	150
#	21160
#	44058
#	57712
#	78226
#	88585
#	107198
#	122481
#	137780
#	151494
#	167879
#	184548
#
# Disc length: 2765 seconds
#
# Revision: 1
# Processed by: cddbd v1.5.2PL0 Copyright (c) Steve Scherf et al.
# Submitted via: audiograbber 1.83.01
#
DISCID=a20acb0c
DTITLE=Zervas and Pepper - Wilderland
DYEAR=2017
DGENRE=Country
TTITLE0=Roses of Jericho
TTITLE1=Hotel Bible
TTITLE2=Mother Earth
TTITLE3=Dark Matter
TTITLE4=Change Courses
TTITLE5=Mazeppa and the Wild Horse
TTITLE6=Citizen
TTITLE7=Mountain to Ocean
TTITLE8=Harlequin
TTITLE9=I Leave No Traces
TTITLE10=Class of '96
TTITLE11=Universe to Find
EXTD=
EXTT0=
EXTT1=
EXTT2=
EXTT3=
EXTT4=
EXTT5=
EXTT6=
EXTT7=
EXTT8=
EXTT9=
EXTT10=
EXTT11=
PLAYORDER=
